<?xml version="1.0" encoding="utf-8"?>
<!-- Generator: Adobe Illustrator 22.1.0, SVG Export Plug-In . SVG Version: 6.00 Build 0)  -->
<svg fill="#253962" width="189" height="50"  version="1.1" id="Layer_1" xmlns="http://www.w3.org/2000/svg" xmlns:xlink="http://www.w3.org/1999/xlink" x="0px" y="0px"
	 viewBox="0 0 189 52" style="enable-background:new 0 0 189 52;" xml:space="preserve">
		<path d="M13.7,19.7L13.7,19.7c-0.5,0.8-0.2,1.8,0.6,2.3l8.6,4.9v9.9c0,0.9,0.8,1.7,1.7,1.7h0c0.9,0,1.7-0.8,1.7-1.7V27l8.6-4.9
			c0.8-0.5,1.1-1.5,0.6-2.3l0,0c-0.5-0.8-1.5-1.1-2.3-0.6l-8.6,4.9L16,19.1C15.2,18.7,14.1,18.9,13.7,19.7z"/>
		<path d="M4.1,14.2v23.6l20.4,11.8l20.4-11.8V14.2L24.5,2.4L4.1,14.2z M41.6,35.8l-17,9.8l-17-9.8V16.2l17-9.8l17,9.8V35.8z"/>
</svg>
